<svg width="30" height="23" viewBox="0 0 30 23" fill="none" xmlns="http://www.w3.org/2000/svg">
<path d="M30 0L29.0713 2.5H26.66L22.3175 17.5H5.76875L0 3.75H21.015L20.31 6.25H3.76L7.43125 15H20.4662L24.7563 0H30ZM10.625 18.75C9.59 18.75 8.75 19.59 8.75 20.625C8.75 21.6612 9.59 22.5 10.625 22.5C11.66 22.5 12.5 21.6612 12.5 20.625C12.5 19.59 11.66 18.75 10.625 18.75ZM19.25 10L16.875 18.75C15.84 18.75 15 19.5888 15 20.625C15 21.6612 15.84 22.5 16.875 22.5C17.91 22.5 18.75 21.6612 18.75 20.625C18.75 19.59 17.91 18.75 16.875 18.75L19.25 10Z" fill="white"/>
</svg>
