<svg width="99" height="23" viewBox="0 0 99 23" fill="none" xmlns="http://www.w3.org/2000/svg">
<path d="M4.09109 22C3.79109 22 3.69109 21.86 3.79109 21.58L10.3011 4.81C10.3411 4.69 10.3011 4.63 10.1811 4.63H4.57109C4.47109 4.63 4.42109 4.68 4.42109 4.78V6.16C4.42109 6.26 4.38109 6.35 4.30109 6.43C4.24109 6.49 4.16109 6.52 4.06109 6.52H1.33109C1.23109 6.52 1.14109 6.49 1.06109 6.43C1.00109 6.35 0.971094 6.26 0.971094 6.16L1.00109 1.36C1.00109 1.26 1.03109 1.18 1.09109 1.12C1.17109 1.04 1.26109 0.999999 1.36109 0.999999H14.4711C14.5711 0.999999 14.6511 1.04 14.7111 1.12C14.7911 1.18 14.8311 1.26 14.8311 1.36V4.39C14.8311 4.51 14.8011 4.66 14.7411 4.84L8.26109 21.73C8.20109 21.91 8.06109 22 7.84109 22H4.09109ZM29.7798 22.33C27.5798 22.33 25.8398 21.72 24.5598 20.5C23.2798 19.26 22.6398 17.58 22.6398 15.46V7.54C22.6398 5.46 23.2798 3.81 24.5598 2.59C25.8398 1.37 27.5798 0.76 29.7798 0.76C31.9798 0.76 33.7198 1.37 34.9998 2.59C36.2998 3.81 36.9498 5.46 36.9498 7.54V15.46C36.9498 17.58 36.2998 19.26 34.9998 20.5C33.7198 21.72 31.9798 22.33 29.7798 22.33ZM29.7798 18.7C30.6798 18.7 31.3898 18.43 31.9098 17.89C32.4498 17.33 32.7198 16.59 32.7198 15.67V7.42C32.7198 6.5 32.4498 5.77 31.9098 5.23C31.3898 4.67 30.6798 4.39 29.7798 4.39C28.8998 4.39 28.1898 4.67 27.6498 5.23C27.1298 5.77 26.8698 6.5 26.8698 7.42V15.67C26.8698 16.59 27.1298 17.33 27.6498 17.89C28.1898 18.43 28.8998 18.7 29.7798 18.7ZM46.8891 22.33C44.6891 22.33 42.9491 21.72 41.6691 20.5C40.3891 19.26 39.7491 17.58 39.7491 15.46V7.54C39.7491 5.46 40.3891 3.81 41.6691 2.59C42.9491 1.37 44.6891 0.76 46.8891 0.76C49.0891 0.76 50.8291 1.37 52.1091 2.59C53.4091 3.81 54.0591 5.46 54.0591 7.54V15.46C54.0591 17.58 53.4091 19.26 52.1091 20.5C50.8291 21.72 49.0891 22.33 46.8891 22.33ZM46.8891 18.7C47.7891 18.7 48.4991 18.43 49.0191 17.89C49.5591 17.33 49.8291 16.59 49.8291 15.67V7.42C49.8291 6.5 49.5591 5.77 49.0191 5.23C48.4991 4.67 47.7891 4.39 46.8891 4.39C46.0091 4.39 45.2991 4.67 44.7591 5.23C44.2391 5.77 43.9791 6.5 43.9791 7.42V15.67C43.9791 16.59 44.2391 17.33 44.7591 17.89C45.2991 18.43 46.0091 18.7 46.8891 18.7ZM63.9985 22.33C61.7985 22.33 60.0585 21.72 58.7785 20.5C57.4985 19.26 56.8585 17.58 56.8585 15.46V7.54C56.8585 5.46 57.4985 3.81 58.7785 2.59C60.0585 1.37 61.7985 0.76 63.9985 0.76C66.1985 0.76 67.9385 1.37 69.2185 2.59C70.5185 3.81 71.1685 5.46 71.1685 7.54V15.46C71.1685 17.58 70.5185 19.26 69.2185 20.5C67.9385 21.72 66.1985 22.33 63.9985 22.33ZM63.9985 18.7C64.8985 18.7 65.6085 18.43 66.1285 17.89C66.6685 17.33 66.9385 16.59 66.9385 15.67V7.42C66.9385 6.5 66.6685 5.77 66.1285 5.23C65.6085 4.67 64.8985 4.39 63.9985 4.39C63.1185 4.39 62.4085 4.67 61.8685 5.23C61.3485 5.77 61.0885 6.5 61.0885 7.42V15.67C61.0885 16.59 61.3485 17.33 61.8685 17.89C62.4085 18.43 63.1185 18.7 63.9985 18.7ZM87.8038 13.63C87.7038 13.63 87.6538 13.68 87.6538 13.78V15.19C87.6538 15.29 87.7038 15.34 87.8038 15.34H93.5038C93.6038 15.34 93.6838 15.38 93.7437 15.46C93.8238 15.52 93.8638 15.6 93.8638 15.7V17.44C93.8638 17.54 93.8238 17.63 93.7437 17.71C93.6838 17.77 93.6038 17.8 93.5038 17.8H87.8038C87.7038 17.8 87.6538 17.85 87.6538 17.95V21.64C87.6538 21.74 87.6138 21.83 87.5338 21.91C87.4738 21.97 87.3938 22 87.2938 22H83.7838C83.6838 22 83.5938 21.97 83.5138 21.91C83.4538 21.83 83.4238 21.74 83.4238 21.64V17.95C83.4238 17.85 83.3738 17.8 83.2738 17.8H80.7838C80.6838 17.8 80.5938 17.77 80.5138 17.71C80.4538 17.63 80.4238 17.54 80.4238 17.44V15.7C80.4238 15.6 80.4538 15.52 80.5138 15.46C80.5938 15.38 80.6838 15.34 80.7838 15.34H83.2738C83.3738 15.34 83.4238 15.29 83.4238 15.19V13.78C83.4238 13.68 83.3738 13.63 83.2738 13.63H80.7838C80.6838 13.63 80.5938 13.6 80.5138 13.54C80.4538 13.46 80.4238 13.37 80.4238 13.27V10.57C80.4238 10.47 80.4538 10.39 80.5138 10.33C80.5938 10.25 80.6838 10.21 80.7838 10.21H83.2738C83.3738 10.21 83.4238 10.16 83.4238 10.06V1.33C83.4238 1.23 83.4538 1.15 83.5138 1.09C83.5938 1.01 83.6838 0.969999 83.7838 0.969999H92.2138C93.5338 0.969999 94.6938 1.24 95.6938 1.78C96.6938 2.32 97.4738 3.08 98.0338 4.06C98.5938 5.02 98.8738 6.12 98.8738 7.36C98.8738 8.6 98.5738 9.7 97.9738 10.66C97.3738 11.6 96.5538 12.33 95.5138 12.85C94.4738 13.37 93.3138 13.63 92.0338 13.63H87.8038ZM87.8038 4.63C87.7038 4.63 87.6538 4.68 87.6538 4.78V10.06C87.6538 10.16 87.7038 10.21 87.8038 10.21H91.5838C92.5638 10.21 93.3138 9.97 93.8338 9.49C94.3738 9.01 94.6438 8.33 94.6438 7.45C94.6438 6.55 94.3738 5.86 93.8338 5.38C93.3138 4.88 92.5638 4.63 91.5838 4.63H87.8038Z" fill="#2F3035"/>
</svg>
