<svg width="98" height="23" viewBox="0 0 98 23" fill="none" xmlns="http://www.w3.org/2000/svg">
<path d="M13.4 11.83C13.88 12.73 14.12 13.88 14.12 15.28C14.12 16.44 13.93 17.48 13.55 18.4C13.03 19.58 12.22 20.51 11.12 21.19C10.02 21.87 8.72 22.21 7.22 22.21C5.68 22.21 4.35 21.86 3.23 21.16C2.11 20.44 1.3 19.45 0.8 18.19C0.44 17.31 0.26 16.33 0.26 15.25V6.22C0.26 5.14 0.54 4.19 1.1 3.37C1.68 2.53 2.48 1.89 3.5 1.45C4.52 0.989999 5.69 0.76 7.01 0.76C8.31 0.76 9.46 0.989999 10.46 1.45C11.46 1.89 12.23 2.52 12.77 3.34C13.33 4.14 13.61 5.07 13.61 6.13V6.97C13.61 7.07 13.57 7.16 13.49 7.24C13.43 7.3 13.35 7.33 13.25 7.33H9.74C9.64 7.33 9.55 7.3 9.47 7.24C9.41 7.16 9.38 7.07 9.38 6.97V6.7C9.38 6.04 9.16 5.49 8.72 5.05C8.28 4.61 7.71 4.39 7.01 4.39C6.27 4.39 5.66 4.62 5.18 5.08C4.72 5.52 4.49 6.09 4.49 6.79V9.61C4.49 9.67 4.51 9.71 4.55 9.73C4.59 9.73 4.63 9.71 4.67 9.67C5.49 8.97 6.58 8.62 7.94 8.62C9.14 8.62 10.21 8.9 11.15 9.46C12.11 10 12.86 10.79 13.4 11.83ZM9.44 17.23C9.74 16.71 9.89 16.08 9.89 15.34C9.89 14.54 9.73 13.88 9.41 13.36C8.91 12.56 8.18 12.16 7.22 12.16C6.14 12.16 5.39 12.57 4.97 13.39C4.67 13.91 4.52 14.58 4.52 15.4C4.52 16.12 4.65 16.73 4.91 17.23C5.35 18.11 6.11 18.55 7.19 18.55C8.23 18.55 8.98 18.11 9.44 17.23ZM35.2491 4.81C35.5891 5.63 35.7591 6.61 35.7591 7.75V16.78C35.7591 17.86 35.4791 18.82 34.9191 19.66C34.3591 20.48 33.5691 21.12 32.5491 21.58C31.5291 22.02 30.3591 22.24 29.0391 22.24C27.7391 22.24 26.5891 22.02 25.5891 21.58C24.5891 21.12 23.8091 20.49 23.2491 19.69C22.6891 18.87 22.4091 17.93 22.4091 16.87V16.03C22.4091 15.93 22.4391 15.85 22.4991 15.79C22.5791 15.71 22.6691 15.67 22.7691 15.67H26.2791C26.3791 15.67 26.4591 15.71 26.5191 15.79C26.5991 15.85 26.6391 15.93 26.6391 16.03V16.3C26.6391 16.96 26.8591 17.51 27.2991 17.95C27.7591 18.39 28.3391 18.61 29.0391 18.61C29.7791 18.61 30.3791 18.39 30.8391 17.95C31.2991 17.49 31.5291 16.91 31.5291 16.21V13.42C31.5291 13.36 31.5091 13.32 31.4691 13.3C31.4291 13.28 31.3891 13.29 31.3491 13.33C30.5291 14.03 29.4491 14.38 28.1091 14.38C26.9091 14.38 25.8291 14.11 24.8691 13.57C23.9291 13.01 23.1891 12.21 22.6491 11.17C22.1491 10.23 21.8991 9.08 21.8991 7.72C21.8991 6.54 22.0991 5.5 22.4991 4.6C22.9991 3.42 23.7991 2.49 24.8991 1.81C26.0191 1.13 27.3291 0.789999 28.8291 0.789999C30.3491 0.789999 31.6691 1.15 32.7891 1.87C33.9291 2.57 34.7491 3.55 35.2491 4.81ZM28.8291 10.84C29.8691 10.84 30.6191 10.43 31.0791 9.61C31.3791 9.09 31.5291 8.42 31.5291 7.6C31.5291 6.94 31.3991 6.33 31.1391 5.77C30.6991 4.89 29.9391 4.45 28.8591 4.45C27.8191 4.45 27.0591 4.89 26.5791 5.77C26.2791 6.33 26.1291 6.96 26.1291 7.66C26.1291 8.42 26.2991 9.08 26.6391 9.64C27.1391 10.44 27.8691 10.84 28.8291 10.84ZM45.5766 22.33C43.3766 22.33 41.6366 21.72 40.3566 20.5C39.0766 19.26 38.4366 17.58 38.4366 15.46V7.54C38.4366 5.46 39.0766 3.81 40.3566 2.59C41.6366 1.37 43.3766 0.76 45.5766 0.76C47.7766 0.76 49.5166 1.37 50.7966 2.59C52.0966 3.81 52.7466 5.46 52.7466 7.54V15.46C52.7466 17.58 52.0966 19.26 50.7966 20.5C49.5166 21.72 47.7766 22.33 45.5766 22.33ZM45.5766 18.7C46.4766 18.7 47.1866 18.43 47.7066 17.89C48.2466 17.33 48.5166 16.59 48.5166 15.67V7.42C48.5166 6.5 48.2466 5.77 47.7066 5.23C47.1866 4.67 46.4766 4.39 45.5766 4.39C44.6966 4.39 43.9866 4.67 43.4466 5.23C42.9266 5.77 42.6666 6.5 42.6666 7.42V15.67C42.6666 16.59 42.9266 17.33 43.4466 17.89C43.9866 18.43 44.6966 18.7 45.5766 18.7ZM62.686 22.33C60.486 22.33 58.746 21.72 57.466 20.5C56.186 19.26 55.546 17.58 55.546 15.46V7.54C55.546 5.46 56.186 3.81 57.466 2.59C58.746 1.37 60.486 0.76 62.686 0.76C64.886 0.76 66.626 1.37 67.906 2.59C69.206 3.81 69.856 5.46 69.856 7.54V15.46C69.856 17.58 69.206 19.26 67.906 20.5C66.626 21.72 64.886 22.33 62.686 22.33ZM62.686 18.7C63.586 18.7 64.296 18.43 64.816 17.89C65.356 17.33 65.626 16.59 65.626 15.67V7.42C65.626 6.5 65.356 5.77 64.816 5.23C64.296 4.67 63.586 4.39 62.686 4.39C61.806 4.39 61.096 4.67 60.556 5.23C60.036 5.77 59.776 6.5 59.776 7.42V15.67C59.776 16.59 60.036 17.33 60.556 17.89C61.096 18.43 61.806 18.7 62.686 18.7ZM86.4913 13.63C86.3913 13.63 86.3413 13.68 86.3413 13.78V15.19C86.3413 15.29 86.3913 15.34 86.4913 15.34H92.1913C92.2913 15.34 92.3713 15.38 92.4312 15.46C92.5113 15.52 92.5513 15.6 92.5513 15.7V17.44C92.5513 17.54 92.5113 17.63 92.4312 17.71C92.3713 17.77 92.2913 17.8 92.1913 17.8H86.4913C86.3913 17.8 86.3413 17.85 86.3413 17.95V21.64C86.3413 21.74 86.3013 21.83 86.2213 21.91C86.1613 21.97 86.0813 22 85.9813 22H82.4713C82.3713 22 82.2813 21.97 82.2013 21.91C82.1413 21.83 82.1113 21.74 82.1113 21.64V17.95C82.1113 17.85 82.0613 17.8 81.9613 17.8H79.4713C79.3713 17.8 79.2813 17.77 79.2013 17.71C79.1413 17.63 79.1113 17.54 79.1113 17.44V15.7C79.1113 15.6 79.1413 15.52 79.2013 15.46C79.2813 15.38 79.3713 15.34 79.4713 15.34H81.9613C82.0613 15.34 82.1113 15.29 82.1113 15.19V13.78C82.1113 13.68 82.0613 13.63 81.9613 13.63H79.4713C79.3713 13.63 79.2813 13.6 79.2013 13.54C79.1413 13.46 79.1113 13.37 79.1113 13.27V10.57C79.1113 10.47 79.1413 10.39 79.2013 10.33C79.2813 10.25 79.3713 10.21 79.4713 10.21H81.9613C82.0613 10.21 82.1113 10.16 82.1113 10.06V1.33C82.1113 1.23 82.1413 1.15 82.2013 1.09C82.2813 1.01 82.3713 0.969999 82.4713 0.969999H90.9013C92.2213 0.969999 93.3813 1.24 94.3813 1.78C95.3813 2.32 96.1613 3.08 96.7213 4.06C97.2813 5.02 97.5613 6.12 97.5613 7.36C97.5613 8.6 97.2613 9.7 96.6613 10.66C96.0613 11.6 95.2413 12.33 94.2013 12.85C93.1613 13.37 92.0013 13.63 90.7213 13.63H86.4913ZM86.4913 4.63C86.3913 4.63 86.3413 4.68 86.3413 4.78V10.06C86.3413 10.16 86.3913 10.21 86.4913 10.21H90.2713C91.2513 10.21 92.0013 9.97 92.5213 9.49C93.0613 9.01 93.3313 8.33 93.3313 7.45C93.3313 6.55 93.0613 5.86 92.5213 5.38C92.0013 4.88 91.2513 4.63 90.2713 4.63H86.4913Z" fill="#2F3035"/>
</svg>
