<svg width="117" height="23" viewBox="0 0 117 23" fill="none" xmlns="http://www.w3.org/2000/svg">
<path d="M15.464 12.85C15.564 12.85 15.644 12.89 15.704 12.97C15.784 13.03 15.824 13.11 15.824 13.21V16.24C15.824 16.34 15.784 16.43 15.704 16.51C15.644 16.57 15.564 16.6 15.464 16.6H14.174C14.074 16.6 14.024 16.65 14.024 16.75V21.64C14.024 21.74 13.984 21.83 13.904 21.91C13.844 21.97 13.764 22 13.664 22H10.154C10.054 22 9.96398 21.97 9.88398 21.91C9.82398 21.83 9.79399 21.74 9.79399 21.64V16.75C9.79399 16.65 9.74399 16.6 9.64399 16.6H0.433984C0.333984 16.6 0.243984 16.57 0.163984 16.51C0.103984 16.43 0.0739844 16.34 0.0739844 16.24V13.84C0.0739844 13.72 0.103984 13.57 0.163984 13.39L5.56398 1.27C5.64398 1.09 5.78398 0.999999 5.98398 0.999999H9.73398C9.87398 0.999999 9.96398 1.04 10.004 1.12C10.064 1.18 10.064 1.28 10.004 1.42L4.99398 12.67C4.97398 12.71 4.97398 12.75 4.99398 12.79C5.01398 12.83 5.04398 12.85 5.08398 12.85H9.64399C9.74399 12.85 9.79399 12.8 9.79399 12.7V8.98C9.79399 8.88 9.82398 8.8 9.88398 8.74C9.96398 8.66 10.054 8.62 10.154 8.62H13.664C13.764 8.62 13.844 8.66 13.904 8.74C13.984 8.8 14.024 8.88 14.024 8.98V12.7C14.024 12.8 14.074 12.85 14.174 12.85H15.464ZM31.978 12.43C32.278 13.41 32.428 14.36 32.428 15.28C32.428 16.3 32.268 17.22 31.948 18.04C31.488 19.32 30.678 20.34 29.518 21.1C28.358 21.84 26.998 22.21 25.438 22.21C23.918 22.21 22.578 21.85 21.418 21.13C20.278 20.39 19.468 19.39 18.988 18.13C18.788 17.61 18.638 17.06 18.538 16.48V16.42C18.538 16.2 18.658 16.09 18.898 16.09H22.528C22.728 16.09 22.858 16.2 22.918 16.42C22.938 16.54 22.968 16.64 23.008 16.72C23.048 16.8 23.078 16.87 23.098 16.93C23.298 17.45 23.598 17.85 23.998 18.13C24.398 18.41 24.868 18.55 25.408 18.55C25.968 18.55 26.458 18.4 26.878 18.1C27.298 17.8 27.608 17.38 27.808 16.84C28.008 16.44 28.108 15.92 28.108 15.28C28.108 14.7 28.018 14.18 27.838 13.72C27.698 13.2 27.418 12.8 26.998 12.52C26.578 12.24 26.088 12.1 25.528 12.1C24.968 12.1 24.448 12.23 23.968 12.49C23.488 12.75 23.168 13.09 23.008 13.51C22.948 13.71 22.818 13.81 22.618 13.81H18.928C18.828 13.81 18.738 13.78 18.658 13.72C18.598 13.64 18.568 13.55 18.568 13.45V1.36C18.568 1.26 18.598 1.18 18.658 1.12C18.738 1.04 18.828 0.999999 18.928 0.999999H31.318C31.418 0.999999 31.498 1.04 31.558 1.12C31.638 1.18 31.678 1.26 31.678 1.36V4.27C31.678 4.37 31.638 4.46 31.558 4.54C31.498 4.6 31.418 4.63 31.318 4.63H22.948C22.848 4.63 22.798 4.68 22.798 4.78L22.768 9.22C22.768 9.36 22.828 9.39 22.948 9.31C23.848 8.73 24.888 8.44 26.068 8.44C27.468 8.44 28.688 8.8 29.728 9.52C30.788 10.22 31.538 11.19 31.978 12.43ZM53.8258 12.76C54.2858 13.68 54.5158 14.71 54.5158 15.85C54.5158 17.05 54.2658 18.08 53.7658 18.94C53.2458 19.96 52.4458 20.77 51.3658 21.37C50.3058 21.95 49.0358 22.24 47.5558 22.24C46.1558 22.24 44.8958 21.96 43.7758 21.4C42.6558 20.82 41.8158 19.99 41.2558 18.91C40.7758 17.97 40.5358 16.94 40.5358 15.82C40.5358 14.72 40.7658 13.69 41.2258 12.73C41.5658 12.03 42.0658 11.46 42.7258 11.02C42.8058 10.96 42.8058 10.89 42.7258 10.81C42.2458 10.45 41.8358 9.97 41.4958 9.37C41.0358 8.57 40.8058 7.67 40.8058 6.67C40.8058 5.25 41.2058 4.05 42.0058 3.07C42.5858 2.29 43.3558 1.69 44.3158 1.27C45.2958 0.829998 46.3758 0.609998 47.5558 0.609998C48.7758 0.609998 49.8558 0.829998 50.7958 1.27C51.7358 1.71 52.4958 2.31 53.0758 3.07C53.8758 4.11 54.2758 5.31 54.2758 6.67C54.2758 7.71 54.0158 8.64 53.4958 9.46C53.1558 9.98 52.7458 10.42 52.2658 10.78C52.1858 10.86 52.1858 10.93 52.2658 10.99C52.9258 11.41 53.4458 12 53.8258 12.76ZM45.3058 5.56C45.1058 5.96 45.0058 6.38 45.0058 6.82C45.0058 7.4 45.1358 7.92 45.3958 8.38C45.8558 9.1 46.5658 9.46 47.5258 9.46C48.4858 9.46 49.2158 9.1 49.7158 8.38C49.9758 7.94 50.1058 7.41 50.1058 6.79C50.1058 6.35 50.0058 5.93 49.8058 5.53C49.6058 5.13 49.3058 4.82 48.9058 4.6C48.5058 4.36 48.0358 4.24 47.4958 4.24C47.0158 4.24 46.5758 4.36 46.1758 4.6C45.7958 4.82 45.5058 5.14 45.3058 5.56ZM49.6858 17.56C50.0658 17.02 50.2558 16.32 50.2558 15.46C50.2558 14.72 50.1158 14.1 49.8358 13.6C49.3958 12.76 48.6258 12.34 47.5258 12.34C46.4858 12.34 45.7458 12.75 45.3058 13.57C45.0058 14.07 44.8558 14.72 44.8558 15.52C44.8558 16.3 45.0258 16.95 45.3658 17.47C45.8258 18.23 46.5558 18.61 47.5558 18.61C48.5158 18.61 49.2258 18.26 49.6858 17.56ZM64.1763 22.33C61.9763 22.33 60.2363 21.72 58.9563 20.5C57.6763 19.26 57.0363 17.58 57.0363 15.46V7.54C57.0363 5.46 57.6763 3.81 58.9563 2.59C60.2363 1.37 61.9763 0.76 64.1763 0.76C66.3763 0.76 68.1163 1.37 69.3963 2.59C70.6963 3.81 71.3463 5.46 71.3463 7.54V15.46C71.3463 17.58 70.6963 19.26 69.3963 20.5C68.1163 21.72 66.3763 22.33 64.1763 22.33ZM64.1763 18.7C65.0763 18.7 65.7863 18.43 66.3063 17.89C66.8463 17.33 67.1163 16.59 67.1163 15.67V7.42C67.1163 6.5 66.8463 5.77 66.3063 5.23C65.7863 4.67 65.0763 4.39 64.1763 4.39C63.2963 4.39 62.5863 4.67 62.0463 5.23C61.5263 5.77 61.2663 6.5 61.2663 7.42V15.67C61.2663 16.59 61.5263 17.33 62.0463 17.89C62.5863 18.43 63.2963 18.7 64.1763 18.7ZM81.2856 22.33C79.0856 22.33 77.3456 21.72 76.0656 20.5C74.7856 19.26 74.1456 17.58 74.1456 15.46V7.54C74.1456 5.46 74.7856 3.81 76.0656 2.59C77.3456 1.37 79.0856 0.76 81.2856 0.76C83.4856 0.76 85.2256 1.37 86.5056 2.59C87.8056 3.81 88.4556 5.46 88.4556 7.54V15.46C88.4556 17.58 87.8056 19.26 86.5056 20.5C85.2256 21.72 83.4856 22.33 81.2856 22.33ZM81.2856 18.7C82.1856 18.7 82.8956 18.43 83.4156 17.89C83.9556 17.33 84.2256 16.59 84.2256 15.67V7.42C84.2256 6.5 83.9556 5.77 83.4156 5.23C82.8956 4.67 82.1856 4.39 81.2856 4.39C80.4056 4.39 79.6956 4.67 79.1556 5.23C78.6356 5.77 78.3756 6.5 78.3756 7.42V15.67C78.3756 16.59 78.6356 17.33 79.1556 17.89C79.6956 18.43 80.4056 18.7 81.2856 18.7ZM105.091 13.63C104.991 13.63 104.941 13.68 104.941 13.78V15.19C104.941 15.29 104.991 15.34 105.091 15.34H110.791C110.891 15.34 110.971 15.38 111.031 15.46C111.111 15.52 111.151 15.6 111.151 15.7V17.44C111.151 17.54 111.111 17.63 111.031 17.71C110.971 17.77 110.891 17.8 110.791 17.8H105.091C104.991 17.8 104.941 17.85 104.941 17.95V21.64C104.941 21.74 104.901 21.83 104.821 21.91C104.761 21.97 104.681 22 104.581 22H101.071C100.971 22 100.881 21.97 100.801 21.91C100.741 21.83 100.711 21.74 100.711 21.64V17.95C100.711 17.85 100.661 17.8 100.561 17.8H98.0709C97.9709 17.8 97.8809 17.77 97.8009 17.71C97.7409 17.63 97.7109 17.54 97.7109 17.44V15.7C97.7109 15.6 97.7409 15.52 97.8009 15.46C97.8809 15.38 97.9709 15.34 98.0709 15.34H100.561C100.661 15.34 100.711 15.29 100.711 15.19V13.78C100.711 13.68 100.661 13.63 100.561 13.63H98.0709C97.9709 13.63 97.8809 13.6 97.8009 13.54C97.7409 13.46 97.7109 13.37 97.7109 13.27V10.57C97.7109 10.47 97.7409 10.39 97.8009 10.33C97.8809 10.25 97.9709 10.21 98.0709 10.21H100.561C100.661 10.21 100.711 10.16 100.711 10.06V1.33C100.711 1.23 100.741 1.15 100.801 1.09C100.881 1.01 100.971 0.969999 101.071 0.969999H109.501C110.821 0.969999 111.981 1.24 112.981 1.78C113.981 2.32 114.761 3.08 115.321 4.06C115.881 5.02 116.161 6.12 116.161 7.36C116.161 8.6 115.861 9.7 115.261 10.66C114.661 11.6 113.841 12.33 112.801 12.85C111.761 13.37 110.601 13.63 109.321 13.63H105.091ZM105.091 4.63C104.991 4.63 104.941 4.68 104.941 4.78V10.06C104.941 10.16 104.991 10.21 105.091 10.21H108.871C109.851 10.21 110.601 9.97 111.121 9.49C111.661 9.01 111.931 8.33 111.931 7.45C111.931 6.55 111.661 5.86 111.121 5.38C110.601 4.88 109.851 4.63 108.871 4.63H105.091Z" fill="#2F3035"/>
</svg>
