<svg width="53" height="43" viewBox="0 0 53 43" fill="none" xmlns="http://www.w3.org/2000/svg">
<path d="M45.0441 7.95599C44.3406 7.2526 43.2364 7.14888 42.4141 7.70921C39.3162 9.82072 23.7781 20.4384 22.1082 22.1082C19.6866 24.53 19.6866 28.4702 22.1082 30.8919C23.319 32.1027 24.9097 32.7081 26.5001 32.7081C28.0905 32.7081 29.681 32.1027 30.8919 30.8919C32.5618 29.222 43.1794 13.6839 45.291 10.5861C45.8511 9.76389 45.7475 8.65958 45.0441 7.95599ZM27.9639 27.964C27.1568 28.7713 25.8433 28.7713 25.0362 27.964C24.2289 27.1569 24.2288 25.8438 25.0357 25.0366C25.6846 24.3954 30.0961 21.2492 35.5239 17.4763C31.7511 22.9041 28.6049 27.3154 27.9639 27.964Z" fill="#2F3035"/>
<path d="M9.54735 36.1294L6.99155 37.3762C5.12144 34.0386 4.14062 30.3134 4.14062 26.5C4.14062 23.706 4.65582 21.03 5.59605 18.5621L8.52461 19.9668C8.81342 20.1053 9.11828 20.171 9.41858 20.171C10.1901 20.171 10.9307 19.7377 11.2867 18.9955C11.7811 17.9646 11.3463 16.7279 10.3153 16.2334L7.42393 14.8465C11.0177 8.98547 17.2356 4.89919 24.4298 4.23565V7.34951C24.4298 8.49294 25.3567 9.41982 26.5001 9.41982C27.6435 9.41982 28.5704 8.49294 28.5704 7.34951V4.2341C31.037 4.45863 33.4236 5.08676 35.6893 6.10949C36.7312 6.57997 37.9575 6.11632 38.428 5.07444C38.8985 4.03224 38.435 2.8061 37.3928 2.33562C33.9596 0.78589 30.2948 0 26.5 0C19.4216 0 12.7669 2.75641 7.7616 7.7616C2.75652 12.7669 0 19.4216 0 26.5C0 31.7306 1.55253 36.8178 4.48978 41.2111C4.88542 41.8027 5.53954 42.131 6.21218 42.131C6.51796 42.131 6.82768 42.0632 7.11867 41.9212L11.3628 39.8509C12.3905 39.3496 12.8172 38.1102 12.3159 37.0825C11.8145 36.0549 10.5751 35.6283 9.54735 36.1294Z" fill="#2F3035"/>
<path d="M50.6643 15.6073C50.194 14.5652 48.968 14.1015 47.9255 14.5721C46.8834 15.0426 46.42 16.2688 46.8905 17.3109C48.1971 20.2049 48.8594 23.2966 48.8594 26.5C48.8594 30.3191 47.8754 34.0504 45.9998 37.3917L43.3315 36.1211C42.2994 35.6296 41.0639 36.0678 40.5722 37.1002C40.0806 38.1325 40.519 39.368 41.5514 39.8596L45.899 41.9299C46.185 42.066 46.4882 42.1311 46.788 42.1311C47.4608 42.1311 48.1151 41.8024 48.5102 41.2113C51.4475 36.8179 53.0001 31.7307 53.0001 26.5C53.0001 22.7053 52.2142 19.0404 50.6643 15.6073Z" fill="#2F3035"/>
</svg>
